<svg xmlns="http://www.w3.org/2000/svg" viewBox="0 0 299.15 152.67"><defs><style>.cls-1{fill:#1d1d1b;}.cls-2{fill:#dbdc30;}</style></defs><g id="Capa_2" data-name="Capa 2"><g id="Capa_1-2" data-name="Capa 1"><path class="cls-1" d="M51.22,137.81l13.71-32.26H61.54L47.93,137.81H38.24L55.17,97.52H83.63c2.37,0,3.94.62,4.73,1.73s.39,3.19-.89,6.3L74.16,137.81H64.41L78.1,105.55H74.46L60.88,137.81Z"/><path class="cls-1" d="M77.54,137.73l15.11-34.85a16,16,0,0,1,2.66-4.06c.92-.94,2.52-1.4,4.82-1.4h10.75a13.1,13.1,0,0,1,3.15.29,2.53,2.53,0,0,1,1.64,1.11,4.76,4.76,0,0,1,0,2.64,30.64,30.64,0,0,1-1.6,4l-13.75,32.31H90.13l7.07-16.1H94.42l-6.82,16.1ZM98.2,113.55h2.45l3.42-8h-2.7Z"/><path class="cls-1" d="M106.24,132.85l13-30.59a20.81,20.81,0,0,1,1.22-2.2,3.89,3.89,0,0,1,1.21-1.48,3.54,3.54,0,0,1,1.94-.81,19.77,19.77,0,0,1,3.05-.33H137c2.54,0,4.17.56,4.91,1.67s.5,2.78-.51,5.15l-3.93,9.31H127.5l3.27-8h-2.66l-10.48,24.32h2.66l3.62-8.13h10L129,132.94a10.41,10.41,0,0,1-2.46,3.85,6.33,6.33,0,0,1-4.08,1H110.63c-1.36.05-2.39.05-3.1,0a3,3,0,0,1-1.79-.65,1.7,1.7,0,0,1-.3-1.51A12,12,0,0,1,106.24,132.85Z"/><path class="cls-1" d="M130.31,137.78l17.41-40.26h9.88l-6.9,16.11h2.74l6.8-16.11h9.89L153,137.78h-9.8l6.71-16.07H147.5l-7,16.07Z"/><path class="cls-1" d="M156.75,137.81,174,97.47h10.1l-17.32,40.34Z"/><path class="cls-1" d="M169.89,137.81l17.19-40.37h15.83c2.79,0,4.36.7,4.69,2s.15,3.14-.92,5.65l-14.15,32.75H182.44l13.86-32.34h-2.56L179.8,137.81Z"/><path class="cls-1" d="M196.09,137.78,213.5,97.39H233l-3.71,8.08h-9.26l-3.39,8h9.16l-3.43,8.13h-9.26l-3.58,8.08H219l-3.39,8.05Z"/><path class="cls-1" d="M233.27,103.48a12.86,12.86,0,0,1,2.8-4.55q1.47-1.49,4.77-1.43H252.5a8.46,8.46,0,0,1,3.27.4,2.29,2.29,0,0,1,1.15,1.43,3.41,3.41,0,0,1-.09,1.72c-.28.74-.53,1.39-.78,2l-2.65,6.49h-9.69l1.68-4h-3.45l-3.31,8.08h13.06L244,132.21a12.44,12.44,0,0,1-2.64,4.25,7.6,7.6,0,0,1-4.77,1.27H225.08a4,4,0,0,1-3.65-1.75,4.74,4.74,0,0,1-.1-4.18l2.67-6.14h9.59l-1.73,4h3.52l3.3-8H225.62Z"/><path class="cls-2" d="M46.12,47.74,62,47.66S73.7,1.8,74.16.07m0,0L21.71,0,0,87.21H21.65l6.58-31.62,4,31.62H53.43L46.12,47.74M39.23,16.62H50.15L45,32.71H34.46Z"/><path class="cls-2" d="M80.46,0S78.23,9.48,77.3,13L61.06,76.27l-2.53,11H96.8c4.27.12,11.39.06,11.39.06s1.61-9,2.69-13.39L128.43.09ZM94.92,69.81H81.22l13-52.38h13.93Z"/><polygon class="cls-1" points="251.01 0 267.1 0 253.9 50.42 268.46 50.42 281.8 0 299.15 0 277.43 73.15 298.1 73.22 244.53 152.68 271.33 87.21 251.45 87.24 259.39 65.96 232.72 66.09 251.01 0"/><path class="cls-2" d="M220.23,87.24h-19l17.64-69.9h-8.31L192.7,87.24H171.28L193.05,0h34.22c6,.08,17.26,0,17.26,0Z"/><path class="cls-2" d="M162.08,87.24H143l17.63-69.9h-8.31l-17.8,69.9H113.14L134.9,0h34.23c6.05.08,17.25,0,17.25,0Z"/></g></g></svg>